<svg width="93" height="47" viewBox="0 0 93 47" fill="none" xmlns="http://www.w3.org/2000/svg">
<path fill-rule="evenodd" clip-rule="evenodd" d="M60.3457 14.8343L89.892 12.7398C91.8423 12.6016 93.0702 14.7995 91.93 16.3877L71.2611 45.1773C70.8277 45.781 70.1298 46.1391 69.3865 46.1391H23.0366C22.2944 46.1391 21.5975 45.7821 21.1636 45.1796L0.439853 16.39C-0.703174 14.802 0.524778 12.6011 2.47667 12.7398L31.933 14.8346L44.5141 0.769102C45.436 -0.261537 47.0515 -0.255537 47.9658 0.782256L60.3457 14.8343ZM66.5332 41.5747L47.3579 34.4084V41.5747H66.5332ZM45.0502 41.5747V34.4084L25.8749 41.5747H45.0502ZM42.8375 32.6965L23.2459 40.0098L8.83266 19.9749L42.8375 32.6965ZM49.5307 32.6965L69.1223 40.0098L83.5355 19.9749L49.5307 32.6965ZM45.0686 31.0243V6.91117L29.0497 24.9942L45.0686 31.0243ZM47.3579 31.0243V6.91417L63.3771 24.9942L47.3579 31.0243ZM24.352 23.3273L28.0377 19.1858L10.0311 17.8953L24.352 23.3273ZM67.8821 23.3273L64.1966 19.1858L82.2033 17.8953L67.8821 23.3273Z" fill="#005FFF"/>
</svg>
